HIERARCHY
ROOT Root
{
  OFFSET 0.0 0.0 0.0
  CHANNELS 6 Xposition Yposition Zposition Zrotation Yrotation Xrotation
  JOINT Hips
  {
    OFFSET 0.0 100.0 0.0
    CHANNELS 6 Xposition Yposition Zposition Zrotation Yrotation Xrotation
    JOINT Spine1
    {
      OFFSET 5.003913 -0.037094 -0.013727
      CHANNELS 3 Zrotation Yrotation Xrotation
      JOINT Spine2
      {
        OFFSET 7.125363 -1e-06 0.0
        CHANNELS 3 Zrotation Yrotation Xrotation
        JOINT Chest
        {
          OFFSET 7.594027 1e-06 0.0
          CHANNELS 3 Zrotation Yrotation Xrotation
          JOINT Neck1
          {
            OFFSET 26.313086 -0.460272 -0.181672
            CHANNELS 3 Zrotation Yrotation Xrotation
            JOINT Neck2
            {
              OFFSET 8.045911 0.0 0.0
              CHANNELS 3 Zrotation Yrotation Xrotation
              JOINT Head
              {
                OFFSET 6.432774 0.0 0.0
                CHANNELS 3 Zrotation Yrotation Xrotation
                JOINT HeadEnd
                {
                  OFFSET 16.169773 0.06451 0.00362
                  CHANNELS 3 Zrotation Yrotation Xrotation
                }
                JOINT Jaw
                {
                  OFFSET 0.108741 3.12938 0.002639
                  CHANNELS 3 Zrotation Yrotation Xrotation
                }
                JOINT LeftEye
                {
                  OFFSET 4.45173 8.166359 3.206392
                  CHANNELS 3 Zrotation Yrotation Xrotation
                }
                JOINT RightEye
                {
                  OFFSET 4.436895 8.135758 -3.222429
                  CHANNELS 3 Zrotation Yrotation Xrotation
                }
              }
            }
          }
          JOINT LeftShoulder
          {
            OFFSET 23.218927 5.195579 1.621656
            CHANNELS 3 Zrotation Yrotation Xrotation
            JOINT LeftArm
            {
              OFFSET 15.902118 2e-06 -2e-06
              CHANNELS 3 Zrotation Yrotation Xrotation
              JOINT LeftForeArm
              {
                OFFSET 28.739307 0.0 -1e-06
                CHANNELS 3 Zrotation Yrotation Xrotation
                JOINT LeftHand
                {
                  OFFSET 27.093981 -4e-06 0.0
                  CHANNELS 3 Zrotation Yrotation Xrotation
                  JOINT LeftHandThumb1
                  {
                    OFFSET 2.276781 3.380274 0.83384
                    CHANNELS 3 Zrotation Yrotation Xrotation
                    JOINT LeftHandThumb2
                    {
                      OFFSET 4.705309 -1e-06 -1e-06
                      CHANNELS 3 Zrotation Yrotation Xrotation
                      JOINT LeftHandThumb3
                      {
                        OFFSET 2.798515 0.0 3e-06
                        CHANNELS 3 Zrotation Yrotation Xrotation
                        JOINT LeftHandThumbEnd
                        {
                          OFFSET 3.180793 4e-06 -4e-06
                          CHANNELS 3 Zrotation Yrotation Xrotation
                        }
                      }
                    }
                  }
                  JOINT LeftHandIndex1
                  {
                    OFFSET 3.247786 2.352677 0.137192
                    CHANNELS 3 Zrotation Yrotation Xrotation
                    JOINT LeftHandIndex2
                    {
                      OFFSET 6.367095 1e-06 0.0
                      CHANNELS 3 Zrotation Yrotation Xrotation
                      JOINT LeftHandIndex3
                      {
                        OFFSET 3.662364 0.0 0.0
                        CHANNELS 3 Zrotation Yrotation Xrotation
                        JOINT LeftHandIndex4
                        {
                          OFFSET 2.329242 4e-06 -4e-06
                          CHANNELS 3 Zrotation Yrotation Xrotation
                          JOINT LeftHandIndexEnd
                          {
                            OFFSET 2.767823 1e-06 0.0
                            CHANNELS 3 Zrotation Yrotation Xrotation
                          }
                        }
                      }
                    }
                  }
                  JOINT LeftHandMiddle1
                  {
                    OFFSET 3.163612 0.945023 -0.406112
                    CHANNELS 3 Zrotation Yrotation Xrotation
                    JOINT LeftHandMiddle2
                    {
                      OFFSET 6.276789 3e-06 0.0
                      CHANNELS 3 Zrotation Yrotation Xrotation
                      JOINT LeftHandMiddle3
                      {
                        OFFSET 4.35652 -1e-06 4e-06
                        CHANNELS 3 Zrotation Yrotation Xrotation
                        JOINT LeftHandMiddle4
                        {
                          OFFSET 2.996877 0.0 8e-06
                          CHANNELS 3 Zrotation Yrotation Xrotation
                          JOINT LeftHandMiddleEnd
                          {
                            OFFSET 2.323256 3e-06 -4e-06
                            CHANNELS 3 Zrotation Yrotation Xrotation
                          }
                        }
                      }
                    }
                  }
                  JOINT LeftHandRing1
                  {
                    OFFSET 2.882606 -0.309162 0.107445
                    CHANNELS 3 Zrotation Yrotation Xrotation
                    JOINT LeftHandRing2
                    {
                      OFFSET 6.033198 0.0 4e-06
                      CHANNELS 3 Zrotation Yrotation Xrotation
                      JOINT LeftHandRing3
                      {
                        OFFSET 4.350578 3e-06 0.0
                        CHANNELS 3 Zrotation Yrotation Xrotation
                        JOINT LeftHandRing4
                        {
                          OFFSET 2.651321 2e-06 -7e-06
                          CHANNELS 3 Zrotation Yrotation Xrotation
                          JOINT LeftHandRingEnd
                          {
                            OFFSET 1.937663 1e-06 -4e-06
                            CHANNELS 3 Zrotation Yrotation Xrotation
                          }
                        }
                      }
                    }
                  }
                  JOINT LeftHandPinky1
                  {
                    OFFSET 2.865315 -1.525436 0.575687
                    CHANNELS 3 Zrotation Yrotation Xrotation
                    JOINT LeftHandPinky2
                    {
                      OFFSET 5.54936 1e-06 -8e-06
                      CHANNELS 3 Zrotation Yrotation Xrotation
                      JOINT LeftHandPinky3
                      {
                        OFFSET 3.070974 0.0 -4e-06
                        CHANNELS 3 Zrotation Yrotation Xrotation
                        JOINT LeftHandPinky4
                        {
                          OFFSET 1.549672 1e-06 0.0
                          CHANNELS 3 Zrotation Yrotation Xrotation
                          JOINT LeftHandPinkyEnd
                          {
                            OFFSET 1.952123 0.0 0.0
                            CHANNELS 3 Zrotation Yrotation Xrotation
                          }
                        }
                      }
                    }
                  }
                }
              }
            }
          }
          JOINT RightShoulder
          {
            OFFSET 23.161716 5.296122 -1.380114
            CHANNELS 3 Zrotation Yrotation Xrotation
            JOINT RightArm
            {
              OFFSET -16.027195 -2e-06 1.1e-05
              CHANNELS 3 Zrotation Yrotation Xrotation
              JOINT RightForeArm
              {
                OFFSET -28.736639 4e-06 2e-06
                CHANNELS 3 Zrotation Yrotation Xrotation
                JOINT RightHand
                {
                  OFFSET -27.133619 6e-06 0.0
                  CHANNELS 3 Zrotation Yrotation Xrotation
                  JOINT RightHandThumb1
                  {
                    OFFSET -2.274328 -3.351035 -0.83067
                    CHANNELS 3 Zrotation Yrotation Xrotation
                    JOINT RightHandThumb2
                    {
                      OFFSET -4.703594 -3e-06 2e-06
                      CHANNELS 3 Zrotation Yrotation Xrotation
                      JOINT RightHandThumb3
                      {
                        OFFSET -2.794935 -4e-06 -3e-06
                        CHANNELS 3 Zrotation Yrotation Xrotation
                        JOINT RightHandThumbEnd
                        {
                          OFFSET -3.183852 4e-06 1e-06
                          CHANNELS 3 Zrotation Yrotation Xrotation
                        }
                      }
                    }
                  }
                  JOINT RightHandIndex1
                  {
                    OFFSET -3.253496 -2.33755 -0.127667
                    CHANNELS 3 Zrotation Yrotation Xrotation
                    JOINT RightHandIndex2
                    {
                      OFFSET -6.344434 0.0 0.0
                      CHANNELS 3 Zrotation Yrotation Xrotation
                      JOINT RightHandIndex3
                      {
                        OFFSET -3.654871 0.0 -8e-06
                        CHANNELS 3 Zrotation Yrotation Xrotation
                        JOINT RightHandIndex4
                        {
                          OFFSET -2.327586 -1e-06 0.0
                          CHANNELS 3 Zrotation Yrotation Xrotation
                          JOINT RightHandIndexEnd
                          {
                            OFFSET -2.770001 3e-06 8e-06
                            CHANNELS 3 Zrotation Yrotation Xrotation
                          }
                        }
                      }
                    }
                  }
                  JOINT RightHandMiddle1
                  {
                    OFFSET -3.168223 -0.944764 0.411762
                    CHANNELS 3 Zrotation Yrotation Xrotation
                    JOINT RightHandMiddle2
                    {
                      OFFSET -6.266691 -1e-06 -4e-06
                      CHANNELS 3 Zrotation Yrotation Xrotation
                      JOINT RightHandMiddle3
                      {
                        OFFSET -4.348901 0.0 0.0
                        CHANNELS 3 Zrotation Yrotation Xrotation
                        JOINT RightHandMiddle4
                        {
                          OFFSET -3.00024 2e-06 -4e-06
                          CHANNELS 3 Zrotation Yrotation Xrotation
                          JOINT RightHandMiddleEnd
                          {
                            OFFSET -2.321477 -4e-06 -4e-06
                            CHANNELS 3 Zrotation Yrotation Xrotation
                          }
                        }
                      }
                    }
                  }
                  JOINT RightHandRing1
                  {
                    OFFSET -2.885654 0.293261 -0.119232
                    CHANNELS 3 Zrotation Yrotation Xrotation
                    JOINT RightHandRing2
                    {
                      OFFSET -6.032835 -1e-06 -4e-06
                      CHANNELS 3 Zrotation Yrotation Xrotation
                      JOINT RightHandRing3
                      {
                        OFFSET -4.33881 0.0 -4e-06
                        CHANNELS 3 Zrotation Yrotation Xrotation
                        JOINT RightHandRing4
                        {
                          OFFSET -2.654903 -4e-06 -4e-06
                          CHANNELS 3 Zrotation Yrotation Xrotation
                          JOINT RightHandRingEnd
                          {
                            OFFSET -1.935122 0.0 4e-06
                            CHANNELS 3 Zrotation Yrotation Xrotation
                          }
                        }
                      }
                    }
                  }
                  JOINT RightHandPinky1
                  {
                    OFFSET -2.866241 1.503904 -0.60527
                    CHANNELS 3 Zrotation Yrotation Xrotation
                    JOINT RightHandPinky2
                    {
                      OFFSET -5.553177 -2e-06 0.0
                      CHANNELS 3 Zrotation Yrotation Xrotation
                      JOINT RightHandPinky3
                      {
                        OFFSET -3.062664 -1e-06 -4e-06
                        CHANNELS 3 Zrotation Yrotation Xrotation
                        JOINT RightHandPinky4
                        {
                          OFFSET -1.546529 2e-06 4e-06
                          CHANNELS 3 Zrotation Yrotation Xrotation
                          JOINT RightHandPinkyEnd
                          {
                            OFFSET -1.952341 0.0 -4e-06
                            CHANNELS 3 Zrotation Yrotation Xrotation
                          }
                        }
                      }
                    }
                  }
                }
              }
            }
          }
        }
      }
    }
    JOINT LeftLeg
    {
      OFFSET -8.443107 2.567604 10.043214
      CHANNELS 3 Zrotation Yrotation Xrotation
      JOINT LeftShin
      {
        OFFSET 43.229198 1e-06 -1e-06
        CHANNELS 3 Zrotation Yrotation Xrotation
        JOINT LeftFoot
        {
          OFFSET 42.298611 1e-06 1e-06
          CHANNELS 3 Zrotation Yrotation Xrotation
          JOINT LeftToeBase
          {
            OFFSET 14.165858 1e-06 0.0
            CHANNELS 3 Zrotation Yrotation Xrotation
            JOINT LeftToeEnd
            {
              OFFSET 6.7141 -0.234461 0.0
              CHANNELS 3 Zrotation Yrotation Xrotation
            }
          }
        }
      }
    }
    JOINT RightLeg
    {
      OFFSET -8.303923 2.592729 -10.047278
      CHANNELS 3 Zrotation Yrotation Xrotation
      JOINT RightShin
      {
        OFFSET -43.369682 0.0 1e-06
        CHANNELS 3 Zrotation Yrotation Xrotation
        JOINT RightFoot
        {
          OFFSET -42.260784 4e-06 2e-06
          CHANNELS 3 Zrotation Yrotation Xrotation
          JOINT RightToeBase
          {
            OFFSET -14.222245 -2e-06 -1e-06
            CHANNELS 3 Zrotation Yrotation Xrotation
            JOINT RightToeEnd
            {
              OFFSET -6.660062 0.232574 -2e-06
              CHANNELS 3 Zrotation Yrotation Xrotation
            }
          }
        }
      }
    }
  }
}
MOTION
Frames: 4
Frame Time: 0.03333333333333333
0.0 0.0 0.0 0.0 -0.0 0.0 12.501094 98.981567 -0.327252 95.361145 2.645355 84.562294 -4.803226 -5.324186 0.964648 -12.419611 -0.891851 1.189378 18.990946 -2.689153 -1.282905 17.928772 -7.28748 2.231194 -2.670332 -0.846773 -0.883464 -22.529919 2.831217 -2.555678 6e-06 0.0 0.0 -0.02979 -0.014045 0.120666 -0.068459 0.053327 0.111882 -0.104908 -0.083846 0.124001 -144.597458 -65.08429 165.538223 35.537296 -40.130669 1.285865 78.7332 -1.399029 0.010738 -10.406423 11.257443 -79.750626 17.636549 -26.322626 52.411179 -19.466612 -14.395534 29.410385 6e-06 -8.774798 -4e-06 14.674789 -17.633776 6.851106 -0.609779 -1.795652 -3.889323 -4.807084 -11.046787 -2.937859 -9e-06 -20.975971 -2e-05 -5.019942 -25.033545 -4.031929 7e-06 -1e-06 3e-06 -10.634505 -5.686967 -3.565591 10.573221 -17.922895 -3.113905 -3e-06 -13.821182 -8e-06 -0.501755 -31.181488 -4.027061 -11.360441 -61.275089 7.814268 -13.982675 -7.150194 -2.875048 13.772673 -8.401461 -3.218239 0.347721 -34.211479 0.771625 -0.963035 -17.73337 2.621013 1e-06 1e-06 0.0 -17.346369 -20.095186 -4.201799 21.757488 -1.63835 3.866429 -3e-06 -6.338809 -3e-06 -1.697579 -22.591724 -6.19405 2e-06 -2e-06 -3e-06 29.635473 -74.413582 168.933884 43.515976 -47.214794 9.282533 70.166359 -0.165563 -0.284528 7.252147 -10.240732 -34.672035 22.182108 -20.375807 49.933231 -16.701881 -16.743513 28.476528 -3.4e-05 -12.690601 1e-06 17.444178 -17.723696 1.975045 -0.105915 -1.513859 -4.275876 -5.039029 -5.612863 -2.953561 3.6e-05 -11.020525 -2.1e-05 -6.111236 -15.89533 -3.840512 -1e-06 -1e-06 -2e-06 -10.283362 -5.680275 -4.341836 11.028316 -11.302413 -2.372652 -1.384225 -14.238574 -6.320142 -0.625315 -26.924232 -3.827641 -4.681008 -50.515057 -3.081348 -13.70851 -7.363455 -3.720942 18.14118 -14.052757 -3.242698 6.6e-05 -18.78726 -2.7e-05 -0.429679 -8.456051 2.555504 0.0 0.0 1e-06 -15.923498 -20.094446 -5.473601 30.419205 -7.190874 1.735906 2.7e-05 -8.162913 -8e-06 -1.861807 -22.861462 -6.167964 0.0 -4e-06 -0.0 -177.383743 6.152072 -20.818867 5.470533 -0.031136 0.196472 -78.013397 -9.995551 -8.845304 -6.112461 1.693078 2.046258 -0.999997 -1e-06 -0.0 0.750736 -20.197664 -17.784824 9.395103 0.054068 0.486812 -72.324715 5.323339 -11.617995 -6.111363 0.58771 1.635945 -1.000001 -0.0 0.0 
0.0 0.0 0.0 0.0 -0.0 0.0 12.50946 99.002289 -0.397662 95.159912 2.83744 84.208176 -4.832314 -5.257336 0.921331 -12.393696 -0.855478 1.170829 19.046141 -2.553529 -1.362258 18.221916 -7.264631 2.28456 -2.64367 -0.83355 -0.644031 -22.400204 2.797729 -2.309197 6e-06 0.0 -0.0 -0.024487 -0.023118 0.089773 -0.074486 0.054761 0.082933 -0.102338 -0.104491 0.089779 -144.302673 -65.682198 165.279099 36.717281 -39.42931 1.734535 80.105957 -1.607283 0.132875 -10.116751 11.044686 -78.686646 17.636757 -26.322863 52.411133 -19.466682 -14.395585 29.410347 -2.2e-05 -8.774826 -1.5e-05 14.364708 -17.602049 6.855888 -0.609776 -1.795654 -3.889326 -4.807065 -11.046827 -2.937841 4.4e-05 -20.976109 3.4e-05 -5.019945 -25.03368 -4.031821 6e-06 -1e-06 0.0 -10.634533 -5.686958 -3.565592 10.573304 -17.923023 -3.113876 3e-05 -13.821264 2.7e-05 -0.501751 -31.181696 -4.026931 -11.162304 -60.947151 7.487702 -13.982712 -7.150181 -2.875049 13.772741 -8.401543 -3.21822 0.347791 -34.21172 0.771712 -0.963016 -17.733496 2.621083 -1e-06 1e-06 -1e-06 -17.346394 -20.095215 -4.201776 21.757549 -1.638426 3.866439 1.6e-05 -6.33885 8e-06 -1.697541 -22.591856 -6.193977 -3e-06 -5e-06 -3e-06 29.477552 -74.72995 169.028046 44.188309 -46.902676 6.925419 73.586174 -0.094178 -0.327811 10.235581 -9.253429 -40.548603 22.182325 -20.375956 49.933567 -16.701803 -16.743469 28.476574 -3e-06 -12.690614 -4.7e-05 17.383196 -17.565195 1.928614 -0.105932 -1.513858 -4.275893 -5.039058 -5.612876 -2.953586 1.5e-05 -11.020542 -1.2e-05 -6.111285 -15.895384 -3.840549 0.0 0.0 -1e-06 -10.283407 -5.680295 -4.34188 11.028313 -11.302421 -2.372608 -1.384268 -14.238599 -6.320174 -0.625388 -26.92428 -3.827643 -4.593227 -50.237694 -3.202487 -13.708569 -7.363493 -3.720989 18.141172 -14.052768 -3.24263 3.3e-05 -18.7873 -4e-06 -0.429697 -8.456072 2.555535 -0.0 0.0 -2e-06 -15.923577 -20.094521 -5.473661 30.419222 -7.190875 1.736018 1.6e-05 -8.162937 6e-06 -1.861849 -22.861511 -6.167974 0.0 -3e-06 -2e-06 -177.236664 6.007719 -20.795586 5.469586 -0.031082 0.191645 -77.939568 -10.466892 -8.701547 -6.111842 1.707515 2.04789 -1.000003 -1e-06 -0.0 0.804474 -19.998526 -17.714314 9.291259 0.062173 0.493387 -71.97892 5.640545 -11.49504 -6.223313 0.573119 1.635194 -0.999999 -0.0 -0.0 
0.0 0.0 0.0 0.0 -0.0 0.0 12.506378 99.014633 -0.47917 94.959045 3.004697 83.913094 -4.840862 -5.234183 0.902494 -12.361985 -0.840998 1.124098 19.05397 -2.460606 -1.422493 18.426174 -7.070428 2.362041 -2.655578 -0.806092 -0.360018 -22.181955 2.819474 -2.089053 6e-06 0.0 0.0 -0.024777 -0.026773 0.060338 -0.096336 0.056286 0.053082 -0.119362 -0.113562 0.060391 -144.063309 -66.331268 165.023056 37.787773 -38.415424 2.848101 81.546234 -1.565034 0.291197 -9.29447 10.237217 -77.157883 17.636669 -26.322767 52.410927 -19.466557 -14.395624 29.410217 4e-06 -8.77483 -6e-06 14.165225 -17.784391 6.859952 -0.609774 -1.795643 -3.889313 -4.807087 -11.046782 -2.937809 -1.4e-05 -20.976 6.4e-05 -5.020039 -25.033554 -4.031803 5e-06 2e-06 -3e-06 -10.634529 -5.68695 -3.56556 10.573263 -17.922924 -3.113847 -1.2e-05 -13.821213 4.5e-05 -0.501869 -31.181555 -4.0269 -11.168103 -60.801216 7.308948 -13.982709 -7.15017 -2.875012 13.772727 -8.401478 -3.218212 0.347671 -34.211571 0.771767 -0.963067 -17.733427 2.621072 -2e-06 1e-06 -1e-06 -17.346424 -20.095152 -4.201715 21.757563 -1.63838 3.866421 -1e-06 -6.338825 1.6e-05 -1.697633 -22.59177 -6.193932 2e-06 -3e-06 -5e-06 29.128216 -74.937111 169.3069 44.645435 -46.146336 4.345267 75.497742 0.186724 -0.347709 12.474753 -7.544068 -45.902782 22.182076 -20.375845 49.933105 -16.701628 -16.743443 28.476318 3.1e-05 -12.690536 -1.4e-05 17.099047 -17.397129 2.034893 -0.105923 -1.513844 -4.275864 -5.039033 -5.612855 -2.953532 -2.2e-05 -11.020478 1.6e-05 -6.111312 -15.895287 -3.840433 -2e-06 0.0 -2e-06 -10.283345 -5.680282 -4.341823 11.028214 -11.302334 -2.372585 -1.384305 -14.238512 -6.320072 -0.62552 -26.924065 -3.82756 -4.387571 -50.06847 -3.386009 -13.708488 -7.363462 -3.720922 18.141026 -14.052647 -3.242612 -4.5e-05 -18.787193 1.7e-05 -0.42973 -8.45602 2.5555 -1e-06 -0.0 -0.0 -15.923521 -20.094423 -5.473541 30.419054 -7.19074 1.735973 -1.5e-05 -8.162896 5e-06 -1.861953 -22.861414 -6.167912 1e-06 -3e-06 -0.0 -177.083511 5.865247 -20.814934 5.380282 -0.036095 0.202726 -77.841934 -10.867227 -8.606213 -6.136622 1.719849 2.050298 -0.999998 -1e-06 -1e-06 0.9215 -19.762434 -17.763493 9.016176 0.054389 0.512008 -71.62207 5.945349 -11.380935 -6.345616 0.553746 1.626433 -1.000001 -2e-06 -1e-06 
0.0 0.0 0.0 0.0 -0.0 0.0 12.509051 99.017914 -0.589507 94.813507 3.133711 83.712364 -4.829362 -5.263876 0.922369 -12.354877 -0.842181 1.103442 19.055965 -2.409831 -1.456539 18.590157 -6.757474 2.465463 -2.690686 -0.807438 -0.108975 -21.909903 2.930916 -1.928413 6e-06 0.0 -0.0 -0.03183 -0.022123 0.044119 -0.113167 0.059553 0.035972 -0.13599 -0.107318 0.045441 -144.097397 -66.824844 164.972931 38.720058 -37.012215 4.516506 82.965614 -1.272588 0.427222 -7.915972 8.813769 -75.002602 17.636446 -26.322474 52.410999 -19.466631 -14.395574 29.410341 1.1e-05 -8.774813 1.2e-05 14.081599 -18.1231 6.890446 -0.609775 -1.795651 -3.889316 -4.807091 -11.046782 -2.937851 -9e-06 -20.975945 -4.9e-05 -5.019949 -25.033525 -4.03195 6e-06 -0.0 0.0 -10.634506 -5.68697 -3.565565 10.573229 -17.922865 -3.113933 -5e-06 -13.821161 -3.7e-05 -0.501734 -31.181454 -4.027122 -11.329909 -60.745647 7.304198 -13.982677 -7.150198 -2.875021 13.772687 -8.401441 -3.218262 0.34773 -34.211437 0.771557 -0.963013 -17.733345 2.620961 1e-06 -1e-06 3e-06 -17.346392 -20.095184 -4.201762 21.757517 -1.638328 3.866391 -1e-05 -6.338801 -1.1e-05 -1.697587 -22.591724 -6.194067 -1e-06 -5e-06 -2e-06 28.467642 -74.900467 169.871445 44.603844 -45.057598 1.477333 75.702667 0.39431 -0.431895 13.840242 -4.957711 -51.169594 22.181883 -20.375679 49.932991 -16.701794 -16.743471 28.476416 -4e-06 -12.690545 2.5e-05 16.745464 -17.16967 2.220278 -0.105913 -1.513856 -4.275862 -5.039013 -5.612864 -2.953535 2e-06 -11.020497 -1.9e-05 -6.11126 -15.895329 -3.840464 -0.0 -0.0 2e-06 -10.283314 -5.680275 -4.341796 11.02824 -11.302366 -2.372654 -1.384252 -14.238553 -6.320109 -0.625393 -26.924154 -3.82765 -4.201862 -50.195633 -3.558685 -13.708453 -7.363461 -3.720897 18.141068 -14.052685 -3.242712 9e-06 -18.78722 -4.3e-05 -0.429705 -8.456024 2.555469 -0.0 -1e-06 1e-06 -15.923461 -20.094435 -5.47353 30.419092 -7.19077 1.735861 -1e-06 -8.162896 -2.1e-05 -1.861861 -22.861441 -6.16799 1e-06 -4e-06 -0.0 -176.957855 5.783014 -20.787251 5.247626 -0.047699 0.216671 -77.808563 -11.192164 -8.562193 -6.13769 1.71522 2.051734 -0.999996 -2e-06 -0.0 1.034252 -19.57873 -17.964365 8.713812 0.028504 0.529377 -71.372406 6.262563 -11.27503 -6.399797 0.545439 1.616588 -1.0 -0.0 0.0 
